# xmcd CD database file
#
# Track frame offsets:
#	150
#	15897
#	29967
#	43107
#	49955
#	64747
#	79805
#	93427
#	107597
#	114467
#	129987
#	143052
#
# Disc length: 2107 seconds
#
# Revision: 0
# Processed by: cddbd v1.5.1PL2 Copyright (c) Steve Scherf et al.
# Submitted via: CDex 1.51
#
DISCID=9e08390c
DTITLE=Alexandra Winisky - L'âge des questions
DYEAR=1994
DGENRE=Francais
TTITLE0=la première fois
TTITLE1=le bac
TTITLE2=diesel ou essence
TTITLE3=pudeur
TTITLE4=pigeon vole
TTITLE5=l'âge des questions
TTITLE6=est-ce que les garçons jouent?
TTITLE7=plus
TTITLE8=pudeur (instru)
TTITLE9=le jeune homme s'en allait
TTITLE10=vidéo game
TTITLE11=quelque chose d'adolescente
EXTD=YEAR: 1994
EXTT0=
EXTT1=
EXTT2=
EXTT3=
EXTT4=
EXTT5=
EXTT6=
EXTT7=
EXTT8=
EXTT9=
EXTT10=
EXTT11=
PLAYORDER=
